<!-- Exact Paper source extraction: https://app.paper.design/file/01KYJH812ACJAJANDTAA385WK3/1-0
     Layer: Cinta métrica · continúa fuera del borde (630×42).
     The website PNG renders this vector at 2× and clips its top 40px in the
     containing 630×40 "Cinta métrica" frame. Extracted 2026-07-29. -->
<svg xmlns="http://www.w3.org/2000/svg" width="630" height="42" viewBox="0 0 630 42" style="overflow: clip">
  <defs>
    <linearGradient id="_ybe2fb0" x1="0" y1="0" x2="0" y2="1">
      <stop offset="0" stop-color="#FFFFFF"/>
      <stop offset="0.52" stop-color="#F7F6F3"/>
      <stop offset="1" stop-color="#E4E2DD"/>
    </linearGradient>
    <pattern id="_ybe2fb1" width="3" height="3" patternUnits="userSpaceOnUse">
      <path d="M0 3L3 0" stroke="#2A2A2C" stroke-width="0.18" opacity="0.12"/>
    </pattern>
    <pattern id="_ybe2fb2" x="17" width="4" height="40" patternUnits="userSpaceOnUse">
      <path d="M0 1V7M0 39V33" stroke="#2A2A2C" stroke-width="0.9"/>
    </pattern>
    <pattern id="_ybe2fb3" x="17" width="20" height="40" patternUnits="userSpaceOnUse">
      <path d="M0 1V9M0 39V31" stroke="#2A2A2C" stroke-width="1.1"/>
    </pattern>
    <pattern id="_ybe2fb4" x="17" width="40" height="40" patternUnits="userSpaceOnUse">
      <path d="M0 1V39" stroke="#2A2A2C" stroke-width="1.4"/>
    </pattern>
    <linearGradient id="_ybe2fb5" x1="0" y1="0" x2="1" y2="1">
      <stop offset="0" stop-color="#D0BA80"/>
      <stop offset="0.38" stop-color="#B09155"/>
      <stop offset="0.7" stop-color="#C4A96B"/>
      <stop offset="1" stop-color="#806936"/>
    </linearGradient>
  </defs>
  <rect x="0" y="1.05" width="650" height="39.9" rx="2" fill="url(#_ybe2fb0)" stroke="#5F5F62" stroke-width="0.8"/>
  <rect x="0" y="1.05" width="650" height="39.9" rx="2" fill="url(#_ybe2fb1)"/>
  <rect x="17" y="1.05" width="633" height="39.9" fill="url(#_ybe2fb2)"/>
  <rect x="17" y="1.05" width="633" height="39.9" fill="url(#_ybe2fb3)"/>
  <rect x="17" y="10.5" width="633" height="21" fill="#F7F6F3F5"/>
  <rect x="17" y="1.05" width="633" height="39.9" fill="url(#_ybe2fb4)"/>
  <g font-family="DM Sans, Arial, sans-serif" font-size="16px" font-weight="700" text-anchor="middle">
    <text x="-0.924" y="5" transform="translate(37 20) rotate(-90)" font-size="16px" fill="#2A2A2C">1</text>
    <text x="-0.924" y="5" transform="translate(77 20) rotate(-90)" font-size="16px" fill="#2A2A2C">2</text>
    <text x="-0.924" y="5" transform="translate(117 20) rotate(-90)" font-size="16px" fill="#2A2A2C">3</text>
    <text x="-0.924" y="5" transform="translate(157 20) rotate(-90)" font-size="16px" fill="#2A2A2C">4</text>
    <text x="-0.924" y="5" transform="translate(197 20) rotate(-90)" font-size="16px" fill="#2A2A2C">5</text>
    <text x="-0.924" y="5" transform="translate(237 20) rotate(-90)" font-size="16px" fill="#2A2A2C">6</text>
    <text x="-0.924" y="5" transform="translate(277 20) rotate(-90)" font-size="16px" fill="#2A2A2C">7</text>
    <text x="-0.924" y="5" transform="translate(317 20) rotate(-90)" font-size="16px" fill="#2A2A2C">8</text>
    <text x="-0.924" y="5" transform="translate(357 20) rotate(-90)" font-size="16px" fill="#2A2A2C">9</text>
    <text x="-0.924" y="5" transform="translate(397 20) rotate(-90)" font-size="16px" fill="#2A2A2C">10</text>
    <text x="-0.924" y="5" transform="translate(437 20) rotate(-90)" font-size="16px" fill="#2A2A2C">11</text>
    <text x="-0.924" y="5" transform="translate(477 20) rotate(-90)" font-size="16px" fill="#2A2A2C">12</text>
    <text x="-0.924" y="5" transform="translate(517 20) rotate(-90)" font-size="16px" fill="#2A2A2C">13</text>
    <text x="-0.924" y="5" transform="translate(557 20) rotate(-90)" font-size="16px" fill="#2A2A2C">14</text>
    <text x="-0.924" y="5" transform="translate(597 20) rotate(-90)" font-size="16px" fill="#2A2A2C">15</text>
  </g>
  <path d="M0 2.1H31C31 5.25 35 5.25 37 8.4 35 11.55 31 11.55 31 14.7 31 17.85 37 17.85 37 21 37 24.15 31 24.15 31 27.3 31 30.45 35 30.45 37 33.6 35 36.75 31 36.75 31 39.9H0Z" fill="url(#_ybe2fb5)" stroke="#66522A" stroke-width="0.9"/>
  <path d="M3 3.15V38.85" fill="#000000" stroke="#E7D7AA" stroke-width="0.5" opacity="0.65"/>
  <ellipse cx="17" cy="21" rx="3.2" ry="5.46" fill="#6F592F" stroke="#E5D2A1" stroke-width="0.9"/>
  <ellipse cx="17" cy="21" rx="1.2" ry="3.15" fill="#F7F6F3" opacity="0.85"/>
</svg>
